<svg width="400" height="289" viewBox="0 0 400 289" fill="none" xmlns="http://www.w3.org/2000/svg">
<g clip-path="url(#clip0_234_5034)">
<path d="M323.197 288.651H226.117L226.098 288.11L221.463 156.157H327.851L323.197 288.651ZM227.206 287.529H322.108L326.684 157.279H222.63L227.206 287.529Z" fill="#3F3D56"/>
<path d="M249.275 180.607H241.891V271.555H249.275V180.607Z" fill="#0A3764"/>
<path d="M278.349 180.607H270.965V271.555H278.349V180.607Z" fill="#0A3764"/>
<path d="M307.423 180.607H300.039V271.555H307.423V180.607Z" fill="#0A3764"/>
<path d="M389.541 194.906L389.064 194.607L268.478 118.759L278.938 102.285L279.414 102.585L400 178.432L389.541 194.906ZM270.033 118.41L389.189 193.358L398.444 178.781L279.289 103.833L270.033 118.41Z" fill="#3F3D56"/>
<path d="M360.426 112.645C356.921 110.438 352.853 109.277 348.705 109.301C344.557 109.325 340.503 110.534 337.024 112.782C333.545 115.031 330.788 118.226 329.078 121.988C327.369 125.749 326.78 129.92 327.381 134.005L333.131 137.622C331.686 134.283 331.353 130.57 332.181 127.029C333.009 123.488 334.954 120.303 337.732 117.942C340.51 115.58 343.975 114.166 347.618 113.906C351.262 113.646 354.894 114.554 357.982 116.497C361.07 118.44 363.451 121.316 364.778 124.704C366.105 128.091 366.308 131.813 365.356 135.323C364.404 138.834 362.348 141.949 359.489 144.212C356.63 146.476 353.118 147.768 349.467 147.901L355.217 151.518C359.183 150.306 362.716 147.988 365.397 144.838C368.078 141.687 369.795 137.838 370.344 133.745C370.893 129.653 370.251 125.49 368.494 121.75C366.737 118.01 363.938 114.85 360.431 112.645H360.426Z" fill="#0A3764"/>
<path d="M395.152 287.791H0V289H395.152V287.791Z" fill="#C4C4C4"/>
<path d="M105.027 280.221H96.8173L92.9097 248.703H105.03L105.027 280.221Z" fill="#A0616A"/>
<path d="M80.9844 287.808H106.786V277.886H90.815C88.2078 277.886 85.7073 278.917 83.8637 280.752C82.0201 282.587 80.9844 285.075 80.9844 287.67V287.808Z" fill="#2F2E41"/>
<path d="M102.142 231.382L107.805 237.299L133.427 218.376L125.069 209.644L102.142 231.382Z" fill="#A0616A"/>
<path d="M113.639 240.01L102.619 228.501L95.4014 235.347L113.205 253.94L113.305 253.845C114.239 252.959 114.989 251.897 115.512 250.722C116.035 249.547 116.32 248.281 116.351 246.996C116.382 245.712 116.158 244.433 115.693 243.235C115.227 242.036 114.53 240.94 113.639 240.01V240.01Z" fill="#2F2E41"/>
<path d="M44.9982 145.035C44.4786 144.203 44.1486 143.267 44.0313 142.295C43.9141 141.322 44.0125 140.336 44.3196 139.405C44.6268 138.474 45.1352 137.622 45.809 136.908C46.4828 136.194 47.3057 135.635 48.2198 135.272L80.4523 53.5088L93.0164 60.9963L57.2104 139.434C57.7221 141.003 57.6376 142.705 56.9729 144.216C56.3082 145.728 55.1095 146.944 53.604 147.634C52.0986 148.324 50.3909 148.441 48.8048 147.962C47.2186 147.483 45.8642 146.441 44.9982 145.035Z" fill="#A0616A"/>
<path d="M167.342 150.895C166.36 150.825 165.405 150.542 164.545 150.065C163.685 149.588 162.94 148.929 162.364 148.135C161.787 147.34 161.393 146.43 161.208 145.467C161.023 144.504 161.053 143.513 161.295 142.563L113.744 68.5755L127.211 62.8525L169.961 137.768C171.54 138.276 172.876 139.344 173.716 140.767C174.557 142.191 174.842 143.873 174.519 145.492C174.196 147.112 173.287 148.557 171.964 149.554C170.641 150.55 168.996 151.028 167.342 150.897V150.895Z" fill="#A0616A"/>
<path d="M80.7695 136.847L89.1863 261.356L109.301 259.59L113.442 167.73L124.682 207.182L148.938 208.948L139.337 130.959L80.7695 136.847Z" fill="#0A3764"/>
<path d="M128.232 201.294L124.681 207.182L99.8364 224.258L117.584 233.68C117.584 233.68 151.897 214.837 148.939 208.949L128.232 201.294Z" fill="#0A3764"/>
<path d="M63.1558 86.4726L70.1576 66.8351C71.7154 62.4657 74.1284 58.4472 77.2569 55.0121C80.3853 51.577 84.1672 48.7936 88.3836 46.8229C97.8607 43.3478 108.168 42.7863 117.97 45.2109L120.518 45.8404C127.312 47.4796 133.678 50.5398 139.192 54.8176C143.507 58.2031 147.389 62.4896 147.734 67.1005C147.736 67.1103 147.739 67.1199 147.743 67.1291C148.938 72.3426 149.529 99.4283 149.529 99.4283H138.988L140.655 135.935L140.52 135.671C140.52 135.671 79.7205 147.123 79.7205 141.235V103.549L78.4741 89.9036L63.1558 86.4726Z" fill="#ED6665"/>
<path d="M119.906 40.1061C129.212 40.1061 136.755 32.598 136.755 23.3363C136.755 14.0745 129.212 6.56641 119.906 6.56641C110.601 6.56641 103.058 14.0745 103.058 23.3363C103.058 32.598 110.601 40.1061 119.906 40.1061Z" fill="#A0616A"/>
<path d="M122.43 15.8158L135.513 16.3376C137.159 16.3325 138.956 16.2747 140.21 15.2154C142.098 13.6169 141.782 10.6006 140.771 8.34737C137.952 2.07348 131.665 -0.174171 124.761 0.0104216C117.857 0.195014 110.623 2.52401 106.906 8.31426C103.188 14.1045 102.183 21.4164 103.584 28.1448C105.202 24.7235 107.695 21.7846 110.811 19.6216C113.928 17.4586 117.56 16.1471 121.345 15.818L122.43 15.8158Z" fill="#2F2E41"/>
<path d="M200.118 179.849L152.766 146.817C152.326 146.508 152.026 146.039 151.933 145.512C151.84 144.985 151.96 144.442 152.268 144.003L189.435 91.2215C189.744 90.7836 190.216 90.4857 190.746 90.3929C191.275 90.3002 191.821 90.4202 192.262 90.7266L239.615 123.758C240.054 124.067 240.354 124.536 240.447 125.063C240.54 125.59 240.42 126.133 240.112 126.572L202.946 179.352C202.637 179.791 202.165 180.089 201.635 180.182C201.105 180.275 200.56 180.155 200.118 179.849Z" fill="#0A3764"/>
<path d="M210.768 144.007L182.982 124.624C182.661 124.4 182.387 124.115 182.176 123.786C181.966 123.456 181.822 123.089 181.754 122.704C181.686 122.319 181.695 121.925 181.78 121.544C181.865 121.163 182.025 120.802 182.25 120.482C182.475 120.162 182.762 119.89 183.093 119.68C183.424 119.47 183.793 119.327 184.179 119.26C184.566 119.192 184.962 119.201 185.345 119.286C185.728 119.37 186.091 119.529 186.412 119.753L214.198 139.136C214.847 139.589 215.288 140.279 215.426 141.056C215.563 141.833 215.385 142.632 214.93 143.278C214.475 143.924 213.781 144.364 213 144.5C212.22 144.637 211.417 144.46 210.768 144.007Z" fill="white"/>
<path d="M204.391 153.063L176.605 133.68C176.283 133.456 176.009 133.172 175.798 132.842C175.587 132.513 175.443 132.145 175.375 131.76C175.307 131.375 175.315 130.981 175.401 130.599C175.486 130.218 175.645 129.857 175.871 129.537C176.096 129.217 176.383 128.944 176.714 128.734C177.045 128.525 177.415 128.382 177.801 128.314C178.188 128.247 178.584 128.256 178.967 128.341C179.351 128.426 179.713 128.585 180.035 128.81L207.82 148.192C208.469 148.645 208.91 149.336 209.047 150.112C209.183 150.889 209.005 151.687 208.55 152.333C208.096 152.979 207.402 153.418 206.622 153.555C205.842 153.692 205.04 153.515 204.391 153.063Z" fill="white"/>
<path d="M197.945 162.217L170.159 142.834C169.838 142.61 169.564 142.325 169.353 141.996C169.143 141.666 168.999 141.299 168.931 140.914C168.863 140.529 168.872 140.135 168.957 139.754C169.042 139.373 169.202 139.012 169.427 138.692C169.653 138.372 169.939 138.1 170.27 137.89C170.601 137.68 170.97 137.537 171.357 137.47C171.743 137.402 172.139 137.411 172.522 137.496C172.905 137.58 173.268 137.739 173.589 137.963L201.375 157.346C202.024 157.799 202.466 158.489 202.603 159.266C202.74 160.043 202.562 160.842 202.107 161.488C201.652 162.134 200.958 162.574 200.178 162.71C199.397 162.847 198.594 162.67 197.945 162.217V162.217Z" fill="white"/>
<path d="M210.689 126.091L199.927 118.584C199.605 118.36 199.331 118.075 199.12 117.745C198.909 117.416 198.765 117.048 198.697 116.663C198.629 116.278 198.638 115.884 198.723 115.503C198.808 115.121 198.968 114.76 199.193 114.44C199.418 114.12 199.705 113.847 200.036 113.638C200.367 113.428 200.737 113.285 201.124 113.218C201.51 113.15 201.907 113.159 202.29 113.244C202.673 113.329 203.036 113.488 203.357 113.713L214.119 121.22C214.768 121.673 215.21 122.364 215.347 123.141C215.484 123.917 215.306 124.717 214.851 125.363C214.396 126.009 213.702 126.448 212.922 126.585C212.141 126.721 211.338 126.544 210.689 126.091Z" fill="white"/>
</g>
<defs>
<clipPath id="clip0_234_5034">
<rect width="400" height="289" fill="white"/>
</clipPath>
</defs>
</svg>
