<svg width="336" height="332" viewBox="0 0 336 332" fill="none" xmlns="http://www.w3.org/2000/svg">
<g clip-path="url(#clip0_329_5774)">
<path d="M336 331.241C336 331.662 335.661 332 335.238 332H0.762079C0.339433 332 0 331.662 0 331.241C0 330.82 0.339433 330.481 0.762079 330.481H335.238C335.661 330.481 336 330.82 336 331.241Z" fill="#C4C4C4"/>
<path d="M232.173 294.262L236.015 310.218L224.488 313.409L221.926 296.176L232.173 294.262Z" fill="#9F616A"/>
<path d="M250.744 242.565L238.577 252.777L230.892 264.904L241.779 271.924L260.35 250.862L250.744 242.565Z" fill="#9F616A"/>
<path d="M246.902 137.257L257.148 171.722C257.148 171.722 302.617 211.292 298.134 219.589C293.651 227.886 263.552 250.862 263.552 250.862C263.552 250.862 265.786 258.21 259.226 255.174C252.666 252.139 245.621 243.842 245.621 243.842C245.621 243.842 245.621 237.46 248.823 238.736C252.025 240.013 266.754 222.78 266.754 222.78L234.734 193.422V291.591C234.734 291.591 242.419 298.288 234.734 298.828C227.05 299.368 220.005 300.645 220.005 300.645C220.005 300.645 211.039 297.453 214.241 294.262L204.635 241.927L197.591 178.104L202.714 144.916L246.902 137.257Z" fill="#2F2E41"/>
<path d="M226.409 308.303C226.409 308.303 227.05 305.75 229.611 305.75H237.435C237.435 305.75 239.858 316.6 239.217 316.6C238.577 316.6 249.464 330.641 237.936 331.279C226.409 331.917 223.207 330.641 223.207 330.641L221.926 325.603C221.926 325.603 220.005 322.344 220.646 319.791C221.286 317.238 226.409 308.303 226.409 308.303Z" fill="#2F2E41"/>
<path d="M242.419 266.818C242.419 266.818 249.775 266.703 248.018 268.675C246.262 270.648 243.06 273.839 243.06 273.839C243.06 273.839 235.443 289.156 231.886 286.284C228.33 283.412 222.567 251.501 224.488 247.671C226.409 243.842 228.971 243.842 228.971 243.842L240.786 250.923C240.786 250.923 233.454 268.733 242.419 266.818Z" fill="#2F2E41"/>
<path d="M224.488 83.0076L227.05 67.0518L209.759 60.0312L207.197 84.284L224.488 83.0076Z" fill="#9F616A"/>
<path opacity="0.1" d="M224.488 83.0076L227.05 67.0518L209.759 60.0312L207.197 84.284L224.488 83.0076Z" fill="black"/>
<path d="M206.236 80.7738L226.729 75.668L248.503 82.6885C248.503 82.6885 258.109 109.494 254.907 119.068C251.705 128.641 251.705 147.341 251.705 147.341C251.705 147.341 251.385 139.172 232.813 144.916C214.241 150.66 200.793 150.022 200.793 150.022L200.153 127.046L192.108 106.637C188.669 97.9138 192.375 88.0098 200.706 83.661L206.236 80.7738Z" fill="#E6E6E6"/>
<path d="M300.308 155.959C303.2 159.411 303.756 163.697 301.551 165.531C299.346 167.364 295.215 166.052 292.323 162.597C291.149 161.233 290.319 159.609 289.904 157.86L277.837 143.077L283.715 138.336L296.062 152.738C297.715 153.458 299.171 154.563 300.308 155.959V155.959Z" fill="#9F616A"/>
<path d="M247.573 82.8921L243.373 99.471L263.928 132.263L284.911 153.28L291.713 147.657L270.55 121.415L254.509 87.603L247.573 82.8921Z" fill="#E6E6E6"/>
<path d="M220.118 72.1807C229.857 72.1807 237.751 64.3131 237.751 54.6079C237.751 44.9028 229.857 37.0352 220.118 37.0352C210.38 37.0352 202.486 44.9028 202.486 54.6079C202.486 64.3131 210.38 72.1807 220.118 72.1807Z" fill="#9F616A"/>
<path d="M218.711 30.9828C219.221 31.2796 219.905 30.8305 220.068 30.2648C220.232 29.699 220.041 29.0983 219.852 28.5405L218.901 25.7322C218.226 23.7405 217.51 21.6792 216.049 20.1633C213.843 17.8753 210.338 17.2932 207.183 17.7149C203.131 18.2564 199.132 20.4432 197.248 24.0592C195.364 27.6753 196.166 32.7211 199.571 34.9771C194.719 40.5197 193.027 46.6966 193.294 54.0473C193.561 61.398 201.599 68.163 206.841 73.3413C208.011 72.6342 209.076 69.32 208.432 68.1161C207.788 66.9122 208.71 65.5174 207.913 64.4084C207.116 63.2994 206.449 65.0652 207.255 63.9626C207.764 63.2668 205.779 61.666 206.535 61.2496C210.191 59.2353 211.407 54.6932 213.704 51.2149C216.474 47.0195 221.214 44.1783 226.231 43.707C228.995 43.4473 231.914 43.9176 234.18 45.5166C236.445 47.1157 237.911 49.9731 237.386 52.6897C238.747 51.313 239.424 49.2955 239.168 47.3801C238.913 45.4647 237.73 43.6936 236.056 42.7188C237.074 39.3642 236.202 35.5054 233.84 32.9094C231.477 30.3135 221.894 30.7556 218.444 31.4388" fill="#2F2E41"/>
<path d="M218.176 43.8086C213.607 44.3001 210.309 48.2438 207.524 51.8858C205.918 53.9849 204.237 56.3031 204.277 58.9422C204.318 61.6103 206.108 63.8988 206.963 66.4274C208.362 70.5605 206.999 75.4779 203.67 78.3098C206.959 78.9318 210.515 76.4741 211.082 73.1861C211.743 69.3585 208.832 65.6643 209.177 61.7956C209.481 58.3873 212.176 55.7641 214.467 53.2157C216.758 50.6673 218.91 47.2856 217.856 44.0291" fill="#2F2E41"/>
<path d="M201.359 149.702H69.6486C54.7125 149.702 42.6044 161.769 42.6044 176.655V303.939C42.6044 318.824 54.7125 330.891 69.6485 330.891H201.359C216.296 330.891 228.404 318.824 228.404 303.939V176.655C228.404 161.769 216.296 149.702 201.359 149.702V149.702Z" fill="white"/>
<path d="M201.36 331.529H69.6486C54.3834 331.529 41.964 319.152 41.964 303.939V176.655C41.964 161.441 54.3834 149.064 69.6486 149.064H201.36C216.625 149.064 229.044 161.441 229.044 176.655V303.939C229.044 319.152 216.625 331.529 201.36 331.529ZM69.6486 150.34C55.0895 150.34 43.2448 162.145 43.2448 176.655V303.939C43.2448 318.449 55.0895 330.253 69.6486 330.253H201.36C215.919 330.253 227.763 318.449 227.763 303.939V176.655C227.763 162.145 215.919 150.34 201.36 150.34H69.6486Z" fill="#3F3D56"/>
<path d="M187.462 162.224C189.149 162.224 190.516 160.861 190.516 159.18C190.516 157.499 189.149 156.136 187.462 156.136C185.775 156.136 184.408 157.499 184.408 159.18C184.408 160.861 185.775 162.224 187.462 162.224Z" fill="#3F3D56"/>
<path d="M195.861 162.224C197.547 162.224 198.915 160.861 198.915 159.18C198.915 157.499 197.547 156.136 195.861 156.136C194.174 156.136 192.806 157.499 192.806 159.18C192.806 160.861 194.174 162.224 195.861 162.224Z" fill="#3F3D56"/>
<path d="M204.259 162.224C205.946 162.224 207.313 160.861 207.313 159.18C207.313 157.499 205.946 156.136 204.259 156.136C202.573 156.136 201.205 157.499 201.205 159.18C201.205 160.861 202.573 162.224 204.259 162.224Z" fill="#3F3D56"/>
<path d="M65.3309 286.33C64.3821 286.33 63.6102 287.099 63.6102 288.045C63.6102 288.506 63.7889 288.933 64.1132 289.247C64.4403 289.581 64.8688 289.76 65.3309 289.76H203.08C204.029 289.76 204.801 288.991 204.801 288.045C204.801 287.584 204.622 287.157 204.298 286.843C203.971 286.509 203.543 286.33 203.08 286.33H65.3309Z" fill="#E6E6E6"/>
<path d="M138.986 285.759V290.332H65.3309C64.7 290.332 64.1264 290.08 63.7135 289.657C63.289 289.246 63.0366 288.674 63.0366 288.045C63.0366 286.788 64.0691 285.759 65.3309 285.759H138.986V285.759Z" fill="#6C63FF"/>
<path d="M200.213 277.184H177.27C174.74 277.184 172.681 275.133 172.681 272.611C172.681 270.089 174.74 268.038 177.27 268.038H200.213C202.743 268.038 204.801 270.089 204.801 272.611C204.801 275.133 202.743 277.184 200.213 277.184Z" fill="#E6E6E6"/>
<path d="M215.501 143.169C219.821 144.469 222.65 147.744 221.82 150.484C220.989 153.223 216.814 154.39 212.493 153.089C210.76 152.593 209.171 151.691 207.859 150.457L189.625 144.719L191.92 137.539L210.179 142.805C211.957 142.501 213.782 142.626 215.501 143.169Z" fill="#9F616A"/>
<path d="M183.822 96.0914L203.034 82.0503L202.394 108.856L184.463 131.832L203.675 139.491L203.034 150.426C203.034 150.426 178.699 144.597 174.857 143.959C171.014 143.32 167.812 134.385 167.812 134.385L183.822 96.0914Z" fill="#E6E6E6"/>
<g clip-path="url(#clip1_329_5774)">
<path d="M205.011 313.912H65.4415L70.5022 215.385H92.3432L112.483 229.46H210.071L205.011 313.912Z" fill="#5C5BFF"/>
<path d="M170.845 283.866L90.1762 250.741C89.8941 250.625 89.6699 250.402 89.5525 250.121C89.4352 249.84 89.4343 249.525 89.5502 249.243L126.103 160.746C126.219 160.465 126.443 160.241 126.725 160.124C127.006 160.007 127.323 160.007 127.605 160.122L208.275 193.246C208.557 193.363 208.781 193.586 208.898 193.866C209.016 194.147 209.016 194.463 208.901 194.745L172.348 283.241C172.231 283.523 172.008 283.746 171.726 283.863C171.444 283.98 171.128 283.981 170.845 283.866Z" fill="white"/>
<path d="M170.845 283.866L90.1762 250.741C89.8941 250.625 89.6699 250.402 89.5525 250.121C89.4352 249.84 89.4343 249.525 89.5502 249.243L126.103 160.746C126.219 160.465 126.443 160.241 126.725 160.124C127.006 160.007 127.323 160.007 127.605 160.122L208.275 193.246C208.557 193.363 208.781 193.586 208.898 193.866C209.016 194.147 209.016 194.463 208.901 194.745L172.348 283.241C172.231 283.523 172.008 283.746 171.726 283.863C171.444 283.98 171.128 283.981 170.845 283.866ZM127.43 160.547C127.261 160.477 127.071 160.478 126.902 160.548C126.733 160.618 126.599 160.752 126.529 160.921L89.9759 249.418C89.9064 249.587 89.9069 249.776 89.9773 249.945C90.0477 250.113 90.1823 250.247 90.3515 250.317L171.021 283.441C171.19 283.51 171.38 283.51 171.549 283.44C171.718 283.369 171.852 283.235 171.922 283.067L208.475 194.57C208.544 194.401 208.544 194.211 208.474 194.043C208.403 193.874 208.269 193.741 208.099 193.671L127.43 160.547Z" fill="#3F3D56"/>
<path d="M150.214 203.929L130.206 195.714C129.924 195.598 129.7 195.375 129.583 195.094C129.465 194.813 129.465 194.497 129.581 194.216L137.82 174.267C137.937 173.986 138.16 173.762 138.442 173.645C138.724 173.528 139.04 173.527 139.323 173.643L159.33 181.858C159.612 181.974 159.837 182.197 159.954 182.478C160.071 182.759 160.072 183.075 159.956 183.356L151.717 203.305C151.6 203.586 151.376 203.81 151.095 203.927C150.813 204.044 150.496 204.045 150.214 203.929ZM139.147 174.067C138.978 173.998 138.788 173.998 138.619 174.069C138.45 174.139 138.316 174.273 138.246 174.442L130.006 194.391C129.937 194.559 129.937 194.749 130.008 194.917C130.078 195.086 130.213 195.22 130.382 195.289L150.389 203.505C150.559 203.574 150.749 203.574 150.918 203.504C151.087 203.433 151.221 203.299 151.291 203.13L159.531 183.182C159.6 183.013 159.6 182.823 159.529 182.655C159.459 182.486 159.324 182.352 159.155 182.283L139.147 174.067Z" fill="#F2F2F2"/>
<path d="M143.459 204.01L123.452 195.795C123.198 195.69 122.996 195.49 122.89 195.237C122.785 194.984 122.784 194.7 122.888 194.446L131.128 174.498C131.233 174.244 131.434 174.043 131.688 173.938C131.941 173.833 132.226 173.832 132.48 173.936L152.488 182.151C152.742 182.256 152.944 182.457 153.049 182.709C153.155 182.962 153.155 183.246 153.051 183.5L144.811 203.449C144.707 203.702 144.505 203.903 144.252 204.008C143.998 204.114 143.713 204.114 143.459 204.01Z" fill="#5C5BFF"/>
<path d="M181.996 231.252L119.419 205.557C119.294 205.505 119.179 205.43 119.083 205.334C118.986 205.238 118.91 205.125 118.858 204.999C118.805 204.874 118.778 204.74 118.778 204.604C118.778 204.469 118.804 204.334 118.856 204.209C118.908 204.083 118.984 203.969 119.08 203.873C119.176 203.777 119.29 203.701 119.415 203.649C119.541 203.597 119.676 203.57 119.812 203.569C119.948 203.569 120.082 203.596 120.208 203.647L182.785 229.342C183.039 229.447 183.242 229.647 183.347 229.9C183.453 230.153 183.453 230.437 183.349 230.691C183.244 230.944 183.043 231.146 182.789 231.251C182.536 231.356 182.251 231.357 181.996 231.252V231.252Z" fill="#CCCCCC"/>
<path d="M164.167 231.626L116.702 212.136C116.576 212.085 116.462 212.009 116.365 211.913C116.269 211.817 116.193 211.704 116.14 211.578C116.088 211.453 116.061 211.319 116.061 211.183C116.06 211.048 116.087 210.913 116.139 210.788C116.19 210.663 116.267 210.549 116.363 210.452C116.458 210.356 116.573 210.28 116.698 210.228C116.824 210.176 116.958 210.149 117.094 210.148C117.23 210.148 117.365 210.175 117.491 210.226L164.956 229.716C165.21 229.821 165.412 230.021 165.518 230.274C165.623 230.527 165.624 230.811 165.519 231.065C165.415 231.318 165.213 231.519 164.96 231.625C164.706 231.73 164.421 231.731 164.167 231.626Z" fill="#CCCCCC"/>
<path d="M191.776 206.972L164.106 195.61C163.981 195.558 163.866 195.482 163.77 195.387C163.673 195.291 163.597 195.177 163.545 195.052C163.492 194.927 163.465 194.793 163.465 194.657C163.465 194.521 163.491 194.387 163.543 194.262C163.595 194.136 163.671 194.022 163.767 193.926C163.863 193.83 163.977 193.754 164.102 193.701C164.228 193.649 164.363 193.622 164.499 193.622C164.635 193.622 164.769 193.648 164.895 193.7L192.565 205.062C192.819 205.166 193.021 205.367 193.127 205.62C193.233 205.872 193.233 206.157 193.129 206.41C193.024 206.663 192.823 206.865 192.569 206.97C192.316 207.075 192.03 207.076 191.776 206.972Z" fill="#CCCCCC"/>
<path d="M182.154 210.715L161.389 202.189C161.135 202.085 160.933 201.884 160.827 201.631C160.722 201.378 160.721 201.094 160.826 200.841C160.93 200.587 161.131 200.386 161.385 200.281C161.639 200.175 161.924 200.175 162.178 200.279L182.942 208.805C183.197 208.91 183.399 209.11 183.504 209.363C183.61 209.616 183.61 209.9 183.506 210.154C183.401 210.407 183.2 210.608 182.946 210.714C182.693 210.819 182.408 210.82 182.154 210.715V210.715Z" fill="#CCCCCC"/>
<path d="M176.562 244.41L113.985 218.715C113.859 218.663 113.745 218.587 113.648 218.492C113.552 218.396 113.475 218.282 113.423 218.157C113.371 218.032 113.344 217.898 113.343 217.762C113.343 217.626 113.37 217.492 113.421 217.367C113.473 217.241 113.549 217.127 113.645 217.031C113.741 216.935 113.855 216.859 113.981 216.806C114.106 216.754 114.241 216.727 114.377 216.727C114.513 216.727 114.648 216.753 114.774 216.805L177.351 242.5C177.605 242.605 177.807 242.805 177.912 243.058C178.018 243.311 178.019 243.595 177.914 243.848C177.809 244.102 177.608 244.303 177.355 244.409C177.101 244.514 176.816 244.514 176.562 244.41V244.41Z" fill="#CCCCCC"/>
<path d="M158.732 244.784L111.267 225.294C111.141 225.242 111.027 225.166 110.931 225.071C110.834 224.975 110.758 224.861 110.706 224.736C110.653 224.611 110.626 224.477 110.626 224.341C110.626 224.205 110.652 224.071 110.704 223.946C110.756 223.82 110.832 223.706 110.928 223.61C111.024 223.514 111.138 223.438 111.263 223.386C111.389 223.333 111.524 223.306 111.66 223.306C111.796 223.306 111.93 223.332 112.056 223.384L159.521 242.874C159.647 242.926 159.761 243.001 159.858 243.097C159.954 243.193 160.031 243.307 160.083 243.432C160.135 243.557 160.162 243.691 160.163 243.827C160.163 243.962 160.136 244.097 160.085 244.222C160.033 244.348 159.957 244.462 159.861 244.558C159.765 244.654 159.651 244.73 159.525 244.782C159.399 244.835 159.265 244.861 159.129 244.862C158.993 244.862 158.858 244.836 158.732 244.784Z" fill="#CCCCCC"/>
<path d="M171.127 257.568L108.55 231.873C108.296 231.768 108.094 231.568 107.988 231.315C107.883 231.062 107.882 230.778 107.987 230.524C108.091 230.271 108.292 230.07 108.546 229.964C108.8 229.859 109.085 229.858 109.339 229.963L171.916 255.658C172.17 255.762 172.372 255.963 172.478 256.216C172.583 256.469 172.584 256.753 172.479 257.006C172.375 257.259 172.173 257.461 171.92 257.566C171.666 257.672 171.381 257.672 171.127 257.568Z" fill="#CCCCCC"/>
<path d="M168.41 264.147L105.833 238.452C105.579 238.347 105.377 238.147 105.271 237.894C105.165 237.641 105.165 237.357 105.269 237.103C105.374 236.85 105.575 236.649 105.829 236.543C106.082 236.438 106.367 236.437 106.622 236.542L169.199 262.237C169.324 262.289 169.439 262.365 169.535 262.46C169.632 262.556 169.708 262.67 169.76 262.795C169.813 262.92 169.84 263.054 169.84 263.19C169.84 263.326 169.814 263.46 169.762 263.585C169.71 263.711 169.634 263.825 169.538 263.921C169.442 264.017 169.328 264.093 169.203 264.145C169.077 264.198 168.942 264.225 168.806 264.225C168.67 264.225 168.536 264.199 168.41 264.147Z" fill="#CCCCCC"/>
<path d="M137.882 263.659C139.134 263.725 140.39 263.686 141.636 263.544C142.758 263.414 143.927 263.234 144.91 262.645C145.335 262.404 145.698 262.065 145.967 261.657C146.236 261.25 146.406 260.784 146.461 260.299C146.504 259.838 146.399 259.374 146.161 258.976C145.923 258.578 145.563 258.266 145.135 258.085C144.701 257.903 144.226 257.841 143.759 257.906C143.292 257.971 142.852 258.161 142.485 258.455C142.093 258.795 141.782 259.219 141.577 259.695C141.372 260.171 141.277 260.687 141.3 261.204C141.351 263.33 143.038 265.43 144.911 266.314C147.021 267.31 149.902 266.463 150.442 264.011C150.555 263.501 149.858 263.323 149.567 263.651C149.169 264.088 148.954 264.66 148.965 265.251C148.976 265.841 149.213 266.404 149.626 266.826C150.04 267.248 150.6 267.497 151.192 267.521C151.783 267.545 152.362 267.344 152.809 266.957L152.025 266.635C152.252 267.587 152.728 268.463 153.403 269.174C154.078 269.885 154.929 270.406 155.87 270.685C156.334 270.823 156.816 270.897 157.301 270.902C157.89 270.904 158.495 271.198 159.059 271.382L163.119 272.7C163.716 272.894 164.095 271.99 163.493 271.795L159.816 270.6C159.203 270.401 158.592 270.197 157.977 270.003C157.538 269.865 157.057 269.94 156.598 269.858C155.741 269.696 154.947 269.295 154.309 268.7C153.672 268.106 153.217 267.342 152.998 266.5C152.984 266.416 152.949 266.337 152.897 266.271C152.844 266.204 152.775 266.152 152.696 266.12C152.617 266.087 152.532 266.076 152.447 266.086C152.363 266.096 152.282 266.128 152.213 266.178C151.956 266.422 151.613 266.554 151.259 266.547C150.904 266.54 150.567 266.393 150.32 266.139C150.074 265.885 149.938 265.544 149.942 265.191C149.946 264.837 150.09 264.5 150.343 264.251L149.467 263.892C149.119 265.474 147.183 266.068 145.788 265.61C144.228 265.099 142.887 263.61 142.422 262.05C142.297 261.676 142.251 261.279 142.288 260.886C142.324 260.493 142.441 260.112 142.631 259.766C142.801 259.45 143.066 259.196 143.388 259.038C143.711 258.881 144.075 258.828 144.429 258.888C144.745 258.932 145.032 259.098 145.228 259.349C145.425 259.6 145.515 259.917 145.481 260.234C145.429 260.59 145.29 260.929 145.076 261.219C144.862 261.509 144.58 261.742 144.255 261.898C143.377 262.368 142.325 262.485 141.35 262.591C140.238 262.712 139.118 262.744 138.001 262.686C137.374 262.655 137.248 263.627 137.882 263.659L137.882 263.659Z" fill="#C4C4C4"/>
<path d="M205.011 236.099V313.912H65.4415V222.024H87.2825L107.421 236.099H205.011Z" fill="white"/>
<path d="M130.964 299.306H73.9647V303.82H130.964V299.306Z" fill="#5C5BFF"/>
<path d="M102.465 290.541H73.9647V295.056H102.465V290.541Z" fill="#5C5BFF"/>
<path d="M205.277 314.177H65.175V221.758H87.3664L107.507 235.834H205.277V314.177ZM65.7078 313.646H204.744V236.365H107.338L87.1983 222.289H65.7078V313.646Z" fill="#3F3D56"/>
</g>
</g>
<defs>
<clipPath id="clip0_329_5774">
<rect width="336" height="332" fill="white"/>
</clipPath>
<clipPath id="clip1_329_5774">
<rect width="161.938" height="155.625" fill="white" transform="translate(55.4227 159.083)"/>
</clipPath>
</defs>
</svg>
