<svg width="263" height="175" viewBox="0 0 263 175" fill="none" xmlns="http://www.w3.org/2000/svg">
<g clip-path="url(#clip0_195_13780)">
<path d="M167.04 97.1891C167.961 96.9968 168.769 96.4507 169.29 95.6685C169.812 94.8864 170.005 93.9308 169.827 93.0079C169.788 92.804 169.73 92.604 169.655 92.4103L179.216 84.1743L172.965 82.4072L164.844 90.4992C163.991 90.9058 163.332 91.6315 163.01 92.5195C162.689 93.4074 162.729 94.3863 163.124 95.2445C163.459 95.9646 164.029 96.5493 164.741 96.9027C165.453 97.256 166.264 97.357 167.04 97.1891L167.04 97.1891Z" fill="#A0616A"/>
<path d="M229.128 155.596L229.475 147.788C233.098 145.853 237.139 144.831 241.247 144.811C235.593 149.429 236.3 158.332 232.467 164.543C231.256 166.472 229.627 168.103 227.7 169.316C225.774 170.529 223.598 171.294 221.335 171.553L216.604 174.448C215.955 170.831 216.098 167.117 217.024 163.561C217.949 160.006 219.635 156.693 221.966 153.851C223.289 152.269 224.806 150.861 226.481 149.658C227.614 152.644 229.128 155.596 229.128 155.596Z" fill="#F2F2F2"/>
<path d="M216.938 170.429L212.654 170.429L210.616 153.918L216.939 153.918L216.938 170.429Z" fill="#A0616A"/>
<path d="M218.031 174.579L204.218 174.578V174.404C204.218 172.979 204.784 171.613 205.793 170.605C206.801 169.598 208.168 169.031 209.594 169.031H209.595L212.118 167.119L216.825 169.032L218.031 169.032L218.031 174.579Z" fill="#2F2E41"/>
<path d="M197.036 170.429L192.752 170.429L190.714 153.918L197.037 153.918L197.036 170.429Z" fill="#A0616A"/>
<path d="M198.128 174.579L184.315 174.578V174.404C184.316 172.979 184.882 171.613 185.89 170.605C186.898 169.598 188.266 169.031 189.692 169.031H189.692L192.215 167.119L196.923 169.032L198.129 169.032L198.128 174.579Z" fill="#2F2E41"/>
<path d="M195.182 80.1611L223.046 80.8572C228.338 83.7294 228.418 89.9459 226.684 97.3267C226.684 97.3267 227.269 101.714 226.099 102.883C224.928 104.053 224.343 104.053 224.928 106.101C225.513 108.148 222.421 111.491 222.796 111.867C223.172 112.242 224.05 114.289 224.05 114.289L221.123 130.96C221.123 130.96 219.075 159.913 218.489 160.498C217.904 161.083 217.318 160.498 217.904 161.96C218.489 163.423 219.075 162.838 218.489 163.423C217.971 163.981 217.482 164.567 217.026 165.178H209.95C209.95 165.178 209.416 162.253 209.416 161.96C209.416 161.668 208.831 159.913 208.831 159.621C208.831 159.328 209.348 158.811 209.348 158.811C209.527 158.217 209.648 157.606 209.709 156.989C209.709 156.404 211.465 133.884 211.465 133.884L207.953 104.638L199.465 133.299C199.465 133.299 199.465 158.451 198.88 159.036C198.294 159.621 198.294 159.328 198.587 160.498C198.88 161.668 200.051 161.376 199.172 162.253C198.294 163.13 198.002 161.668 198.294 163.13L198.587 164.593L189.807 164.718C189.807 164.718 188.636 162.253 189.221 161.376C189.807 160.498 189.772 160.738 189.058 159.302C188.343 157.866 188.051 157.574 188.343 157.281C188.636 156.989 188.636 155.433 188.636 155.433L190.099 127.45C190.099 127.45 190.392 97.9116 190.392 97.0343C190.414 96.5828 190.331 96.1324 190.149 95.7185V94.5276L191.27 90.3077L195.182 80.1611Z" fill="#0A3764"/>
<path d="M166.718 87.6891L171.427 91.4839L197.099 71.599L195.58 36.9902C194.136 38.1444 192.936 39.5732 192.048 41.1939C191.161 42.8147 190.603 44.5952 190.409 46.4325L186.01 65.9827L166.718 87.6891Z" fill="#527BE0"/>
<path d="M191.023 88.9033C200.11 90.0638 208.483 86.5479 216.391 83.8941C219.961 82.6961 223.558 83.9468 226.873 81.9208C225.439 67.8141 226.831 51.9241 229.875 34.9907C230.049 34.0321 229.868 33.043 229.366 32.2081C228.863 31.3732 228.074 30.7494 227.145 30.4532L217.335 27.6406L214.314 24.311L206.514 26.2899L203.783 31.222L194.399 37.5579C193.851 37.9275 193.422 38.4473 193.163 39.0548C192.904 39.6623 192.826 40.3317 192.938 40.9825C195.758 56.9078 195.104 73.2534 191.023 88.9033Z" fill="#527BE0"/>
<path d="M220.025 93.2695C220.858 92.8335 221.487 92.0878 221.774 91.1931C222.062 90.2985 221.987 89.3266 221.564 88.4871C221.471 88.3017 221.36 88.1251 221.235 87.9591L228.185 77.4287L221.689 77.4331L216.085 87.4323C215.376 88.056 214.94 88.9338 214.873 89.8759C214.806 90.8179 215.112 91.7485 215.726 92.4666C216.245 93.0679 216.954 93.4749 217.735 93.6208C218.516 93.7667 219.324 93.6428 220.025 93.2694L220.025 93.2695Z" fill="#A0616A"/>
<path d="M218.062 83.439L222.315 88.9036L237.202 66.7418L235.915 44.2268C235.751 41.3592 234.863 38.5797 233.336 36.1467C231.808 33.7137 229.689 31.7064 227.176 30.3115L227.48 64.9203L218.062 83.439Z" fill="#527BE0"/>
<path d="M207.374 23.0231C212.632 23.0231 216.894 18.764 216.894 13.5101C216.894 8.25619 212.632 3.99707 207.374 3.99707C202.116 3.99707 197.854 8.25619 197.854 13.5101C197.854 18.764 202.116 23.0231 207.374 23.0231Z" fill="#A0616A"/>
<path d="M201.308 7.92714C201.677 7.93002 202.043 7.9781 202.4 8.07029C203.103 8.23919 203.817 8.35883 204.537 8.42834C206.741 8.63553 208.811 9.57474 210.419 11.096C212.026 12.6172 213.076 14.6326 213.402 16.8205C213.956 16.3385 215.214 15.452 216.246 16.2759C216.262 16.289 216.271 16.2957 216.307 16.2785C216.993 15.9538 218.209 11.9558 218.246 8.43563C218.265 6.56726 217.971 4.18145 216.459 3.42592L216.379 3.38611L216.358 3.29959C216.257 2.87931 215.128 2.1619 213.166 1.60352C209.601 0.588797 204.287 -1.38791 201.294 1.52116C201.068 2.50187 200.331 4.6006 199.587 4.83849C198.763 5.1018 198.051 5.32904 197.939 6.33928C197.845 7.77693 197.852 9.21936 197.959 10.6561C198.238 9.77693 198.786 9.00746 199.526 8.456C200.052 8.10209 200.674 7.91753 201.308 7.92714Z" fill="#2F2E41"/>
<path d="M263 174.639C263 174.686 262.991 174.733 262.973 174.777C262.955 174.821 262.928 174.861 262.894 174.894C262.861 174.928 262.821 174.955 262.777 174.973C262.733 174.991 262.686 175 262.638 175H0.361536C0.265651 175 0.173696 174.962 0.105895 174.894C0.0380943 174.826 0 174.734 0 174.639C0 174.543 0.0380943 174.451 0.105895 174.383C0.173696 174.315 0.265651 174.277 0.361536 174.277H262.638C262.686 174.277 262.733 174.286 262.777 174.305C262.821 174.323 262.861 174.349 262.894 174.383C262.928 174.416 262.955 174.456 262.973 174.5C262.991 174.544 263 174.591 263 174.639Z" fill="#CCCCCC"/>
<path d="M108.545 30.6993L72.809 38.7331C71.8516 38.9495 71.0191 39.5366 70.4942 40.3656C69.9694 41.1945 69.795 42.1976 70.0094 43.1549L79.8085 86.6783L121.796 77.239C122.141 77.1626 122.457 76.9885 122.705 76.7376L112.97 33.4968C112.753 32.5401 112.166 31.7082 111.336 31.1838C110.507 30.6593 109.503 30.4851 108.545 30.6993Z" fill="#C4C4C4"/>
<path d="M95.5639 36.6923L75.9797 41.095C75.1078 41.2919 74.3497 41.8263 73.8716 42.581C73.3935 43.3357 73.2345 44.2491 73.4294 45.1208L82.6425 86.0412L119.933 77.6577L113.224 47.8572C112.36 44.0388 110.015 40.719 106.704 38.6259C103.393 36.5328 99.387 35.8374 95.5639 36.6923Z" fill="white"/>
<path d="M112.762 75.4517L88.1772 80.9786C88.0718 81.0021 87.9721 81.0461 87.8838 81.1082C87.7954 81.1702 87.7202 81.2491 87.6623 81.3402C87.6045 81.4314 87.5652 81.533 87.5468 81.6393C87.5283 81.7456 87.531 81.8545 87.5547 81.9598C87.5784 82.0651 87.6226 82.1647 87.6849 82.2528C87.7472 82.341 87.8262 82.4161 87.9175 82.4737C88.0088 82.5313 88.1106 82.5703 88.2171 82.5886C88.3235 82.6068 88.4325 82.6039 88.5378 82.58L113.123 77.053C113.228 77.0296 113.328 76.9857 113.416 76.9236C113.505 76.8616 113.58 76.7828 113.638 76.6916C113.696 76.6005 113.735 76.4988 113.754 76.3924C113.772 76.286 113.77 76.1771 113.746 76.0717C113.722 75.9664 113.678 75.8668 113.616 75.7786C113.553 75.6904 113.474 75.6153 113.383 75.5577C113.291 75.5001 113.189 75.4611 113.083 75.4429C112.976 75.4247 112.867 75.4277 112.762 75.4517Z" fill="#E4E4E4"/>
<path d="M112.049 72.2852L87.464 77.8121C87.2512 77.86 87.0662 77.9903 86.9496 78.1744C86.8331 78.3586 86.7945 78.5814 86.8423 78.794C86.8902 79.0066 87.0206 79.1914 87.2049 79.3079C87.3891 79.4244 87.6122 79.463 87.8249 79.4152L112.41 73.8882C112.515 73.8645 112.615 73.8203 112.703 73.7582C112.791 73.696 112.866 73.6171 112.924 73.5259C112.982 73.4348 113.021 73.3331 113.039 73.2268C113.058 73.1205 113.055 73.0116 113.031 72.9064C113.008 72.8011 112.963 72.7015 112.901 72.6134C112.839 72.5252 112.76 72.4501 112.669 72.3924C112.578 72.3347 112.476 72.2956 112.369 72.2772C112.263 72.2588 112.154 72.2615 112.049 72.2852H112.049Z" fill="#E4E4E4"/>
<path d="M97.4085 72.251L86.7514 74.6468C86.5389 74.6946 86.3541 74.8248 86.2376 75.0087C86.1211 75.1927 86.0826 75.4153 86.1304 75.6277C86.1782 75.84 86.3085 76.0247 86.4925 76.1411C86.6766 76.2575 86.8994 76.296 87.1119 76.2482L97.7691 73.8524C97.8745 73.829 97.9744 73.785 98.0628 73.723C98.1512 73.6609 98.2266 73.5821 98.2845 73.4909C98.3423 73.3998 98.3817 73.2981 98.4002 73.1917C98.4187 73.0853 98.416 72.9764 98.3923 72.871C98.3686 72.7657 98.3243 72.6661 98.262 72.5779C98.1997 72.4897 98.1205 72.4146 98.0292 72.357C97.9378 72.2994 97.8359 72.2604 97.7294 72.2422C97.6229 72.224 97.5139 72.227 97.4085 72.251Z" fill="#E4E4E4"/>
<path d="M109.843 62.4888L85.2584 68.0158C85.1531 68.0394 85.0534 68.0836 84.9652 68.1458C84.8769 68.2079 84.8018 68.2869 84.7441 68.378C84.6275 68.5622 84.5889 68.785 84.6368 68.9976C84.6846 69.2102 84.815 69.395 84.9993 69.5115C85.1836 69.628 85.4066 69.6666 85.6193 69.6188L110.204 64.0918C110.309 64.0681 110.409 64.0239 110.497 63.9618C110.586 63.8996 110.661 63.8207 110.718 63.7295C110.776 63.6384 110.815 63.5367 110.834 63.4304C110.852 63.3241 110.849 63.2152 110.826 63.11C110.802 63.0047 110.758 62.9051 110.696 62.817C110.633 62.7288 110.554 62.6537 110.463 62.596C110.372 62.5384 110.27 62.4992 110.164 62.4808C110.058 62.4624 109.949 62.4651 109.843 62.4888Z" fill="#E4E4E4"/>
<path d="M109.131 59.3234L84.5459 64.8504C84.4405 64.8739 84.3408 64.9179 84.2524 64.9799C84.1641 65.042 84.0888 65.1208 84.031 65.212C83.9732 65.3031 83.9339 65.4047 83.9154 65.511C83.897 65.6174 83.8996 65.7263 83.9233 65.8316C83.9471 65.9368 83.9913 66.0364 84.0536 66.1246C84.1158 66.2128 84.1949 66.2878 84.2862 66.3454C84.3775 66.403 84.4793 66.4421 84.5857 66.4603C84.6922 66.4786 84.8011 66.4757 84.9065 66.4518L109.491 60.9248C109.597 60.9012 109.696 60.8571 109.784 60.7951C109.873 60.733 109.948 60.6542 110.006 60.5631C110.063 60.472 110.103 60.3704 110.121 60.2641C110.139 60.1578 110.137 60.049 110.113 59.9438C110.089 59.8386 110.045 59.7391 109.983 59.6509C109.921 59.5628 109.842 59.4878 109.751 59.4302C109.659 59.3726 109.558 59.3335 109.451 59.3152C109.345 59.2968 109.236 59.2996 109.131 59.3234Z" fill="#E4E4E4"/>
<path d="M94.4902 59.2881L83.8331 61.684C83.7278 61.7076 83.6281 61.7518 83.5399 61.814C83.4516 61.8761 83.3765 61.9551 83.3188 62.0462C83.2611 62.1374 83.2219 62.239 83.2035 62.3453C83.185 62.4517 83.1878 62.5605 83.2115 62.6658C83.2352 62.771 83.2794 62.8706 83.3416 62.9588C83.4038 63.047 83.4828 63.1221 83.574 63.1797C83.6652 63.2374 83.7669 63.2766 83.8733 63.295C83.9797 63.3134 84.0887 63.3107 84.194 63.287L94.8511 60.8911C94.9565 60.8674 95.0561 60.8233 95.1444 60.7611C95.2326 60.6989 95.3077 60.62 95.3655 60.5289C95.4232 60.4377 95.4624 60.336 95.4808 60.2297C95.4992 60.1234 95.4965 60.0145 95.4728 59.9093C95.4491 59.804 95.4049 59.7045 95.3427 59.6163C95.2805 59.5281 95.2015 59.453 95.1102 59.3953C95.019 59.3377 94.9173 59.2985 94.8109 59.2801C94.7045 59.2617 94.5956 59.2644 94.4902 59.2881Z" fill="#E4E4E4"/>
<path d="M106.925 49.5259L82.3399 55.0529C82.1272 55.1007 81.9422 55.231 81.8256 55.4151C81.709 55.5993 81.6704 55.8221 81.7183 56.0347C81.7662 56.2473 81.8966 56.4322 82.0808 56.5487C82.2651 56.6651 82.4881 56.7037 82.7009 56.6559L107.286 51.1289C107.391 51.1052 107.491 51.0611 107.579 50.9989C107.667 50.9367 107.742 50.8578 107.8 50.7666C107.858 50.6755 107.897 50.5738 107.915 50.4675C107.934 50.3612 107.931 50.2523 107.907 50.1471C107.884 50.0418 107.839 49.9423 107.777 49.8541C107.715 49.7659 107.636 49.6908 107.545 49.6331C107.454 49.5755 107.352 49.5363 107.245 49.5179C107.139 49.4995 107.03 49.5022 106.925 49.5259Z" fill="#E6E6E6"/>
<path d="M106.212 46.3604L81.6275 51.8873C81.5222 51.911 81.4226 51.9552 81.3343 52.0174C81.2461 52.0795 81.1709 52.1584 81.1132 52.2496C80.9966 52.4337 80.958 52.6566 81.0059 52.8692C81.0538 53.0818 81.1842 53.2666 81.3684 53.3831C81.5527 53.4996 81.7757 53.5382 81.9885 53.4904L106.573 47.9634C106.679 47.9397 106.778 47.8955 106.867 47.8334C106.955 47.7712 107.03 47.6923 107.088 47.6011C107.145 47.5099 107.185 47.4083 107.203 47.302C107.221 47.1957 107.219 47.0868 107.195 46.9816C107.171 46.8763 107.127 46.7767 107.065 46.6886C107.003 46.6004 106.924 46.5253 106.832 46.4676C106.741 46.4099 106.639 46.3708 106.533 46.3524C106.427 46.334 106.318 46.3367 106.212 46.3604Z" fill="#E6E6E6"/>
<path d="M91.5713 46.3247L80.9142 48.7206C80.7014 48.7684 80.5164 48.8987 80.3998 49.0828C80.2833 49.267 80.2447 49.4898 80.2925 49.7024C80.3404 49.915 80.4708 50.0999 80.6551 50.2164C80.8393 50.3328 81.0624 50.3714 81.2751 50.3236L91.9322 47.9277C92.0375 47.9041 92.1372 47.8599 92.2254 47.7977C92.3137 47.7356 92.3888 47.6566 92.4465 47.5655C92.5043 47.4743 92.5434 47.3727 92.5619 47.2663C92.5803 47.16 92.5776 47.0512 92.5539 46.9459C92.5302 46.8406 92.4859 46.7411 92.4237 46.6529C92.3615 46.5647 92.2826 46.4896 92.1913 46.432C92.1001 46.3743 91.9984 46.3351 91.892 46.3167C91.7856 46.2983 91.6766 46.301 91.5713 46.3247Z" fill="#E6E6E6"/>
<path d="M37.2512 81.1978C37.0183 81.198 36.7949 81.2906 36.6302 81.4552C36.4655 81.6198 36.3728 81.843 36.3726 82.0758V172.862C36.3728 173.095 36.4655 173.318 36.6302 173.483C36.7949 173.647 37.0182 173.74 37.2512 173.74H151.164C151.397 173.74 151.62 173.647 151.785 173.483C151.949 173.318 152.042 173.095 152.042 172.862V96.6489C152.042 96.4161 151.949 96.1929 151.785 96.0283C151.62 95.8637 151.397 95.7711 151.164 95.7708H85.7855C85.1218 95.7713 84.4818 95.5242 83.9909 95.0779L69.2929 81.733C68.9137 81.3882 68.4194 81.1973 67.9067 81.1978H37.2512Z" fill="#0A3764"/>
<path d="M173.196 57.4527L112.202 31.2498C110.566 30.5495 108.72 30.526 107.067 31.1844C105.414 31.8429 104.09 33.1295 103.386 34.7621L71.4253 109.048L143.09 139.835C143.677 140.089 144.326 140.17 144.958 140.066L176.711 66.2623C177.412 64.6281 177.435 62.7828 176.776 61.1313C176.117 59.4797 174.83 58.1568 173.196 57.4527Z" fill="#C4C4C4"/>
<path d="M147.766 52.4464L114.34 38.0865C112.851 37.4486 111.169 37.4268 109.664 38.026C108.159 38.6252 106.953 39.7964 106.311 41.2828L76.2622 111.126L139.91 138.469L161.794 87.6053C164.591 81.0832 164.685 73.7188 162.055 67.1275C159.425 60.5363 154.287 55.2565 147.766 52.4464Z" fill="white"/>
<path d="M131.736 127.608L89.7742 109.581C89.5945 109.504 89.4013 109.462 89.2056 109.46C89.01 109.457 88.8156 109.493 88.6338 109.565C88.452 109.637 88.2862 109.744 88.1459 109.881C88.0056 110.017 87.8936 110.18 87.8163 110.36C87.739 110.539 87.698 110.732 87.6954 110.928C87.6929 111.123 87.729 111.317 87.8016 111.499C87.8742 111.681 87.982 111.846 88.1187 111.986C88.2554 112.126 88.4183 112.238 88.5982 112.315L130.56 130.341C130.739 130.419 130.933 130.46 131.128 130.463C131.324 130.466 131.518 130.43 131.7 130.358C131.882 130.285 132.048 130.178 132.188 130.042C132.328 129.905 132.44 129.743 132.518 129.563C132.595 129.383 132.636 129.19 132.638 128.995C132.641 128.799 132.605 128.605 132.532 128.423C132.46 128.242 132.352 128.076 132.215 127.936C132.079 127.796 131.916 127.685 131.736 127.608Z" fill="#E4E4E4"/>
<path d="M134.061 122.203L92.0997 104.176C91.7366 104.02 91.3265 104.015 90.9595 104.161C90.5925 104.307 90.2987 104.593 90.1426 104.956C89.9866 105.319 89.9811 105.729 90.1273 106.095C90.2736 106.462 90.5596 106.756 90.9226 106.912L132.884 124.939C133.064 125.016 133.257 125.057 133.453 125.06C133.648 125.062 133.843 125.026 134.024 124.954C134.206 124.881 134.372 124.774 134.512 124.637C134.652 124.501 134.764 124.338 134.842 124.159C134.919 123.979 134.96 123.786 134.963 123.59C134.965 123.395 134.929 123.201 134.857 123.019C134.784 122.837 134.677 122.672 134.54 122.532C134.404 122.392 134.241 122.28 134.061 122.203H134.061Z" fill="#E4E4E4"/>
<path d="M112.614 106.588L94.424 98.7738C94.2444 98.6964 94.0513 98.6552 93.8557 98.6525C93.6601 98.6498 93.4659 98.6856 93.2842 98.7579C93.1024 98.8302 92.9367 98.9376 92.7966 99.0739C92.6564 99.2102 92.5445 99.3728 92.4672 99.5524C92.39 99.7319 92.3489 99.925 92.3463 100.12C92.3438 100.316 92.3798 100.51 92.4523 100.691C92.5248 100.873 92.6324 101.038 92.769 101.178C92.9055 101.318 93.0683 101.43 93.2481 101.507L111.438 109.321C111.617 109.399 111.81 109.44 112.006 109.443C112.202 109.445 112.396 109.409 112.578 109.337C112.759 109.265 112.925 109.157 113.065 109.021C113.205 108.885 113.317 108.722 113.395 108.543C113.472 108.363 113.513 108.17 113.515 107.975C113.518 107.779 113.482 107.585 113.409 107.404C113.337 107.222 113.229 107.057 113.093 106.917C112.956 106.777 112.793 106.665 112.614 106.588Z" fill="#E4E4E4"/>
<path d="M141.255 105.482L99.2936 87.4559C98.9306 87.3004 98.5206 87.2953 98.1539 87.4416C97.7871 87.588 97.4935 87.8738 97.3375 88.2364C97.1815 88.599 97.1759 89.0086 97.322 89.3752C97.468 89.7419 97.7538 90.0356 98.1164 90.1919L140.078 108.218C140.258 108.296 140.451 108.337 140.647 108.34C140.843 108.343 141.037 108.307 141.219 108.235C141.401 108.162 141.567 108.055 141.708 107.919C141.848 107.782 141.96 107.619 142.037 107.439C142.115 107.26 142.156 107.066 142.158 106.871C142.161 106.675 142.125 106.481 142.052 106.299C141.98 106.117 141.872 105.951 141.735 105.811C141.598 105.671 141.435 105.559 141.255 105.482Z" fill="#E4E4E4"/>
<path d="M143.579 100.08L101.617 82.0535C101.438 81.976 101.245 81.9346 101.049 81.9318C100.853 81.929 100.659 81.9647 100.477 82.037C100.295 82.1092 100.129 82.2166 99.9891 82.353C99.8489 82.4894 99.7369 82.652 99.6596 82.8317C99.5823 83.0113 99.5412 83.2044 99.5387 83.4C99.5362 83.5955 99.5722 83.7896 99.6449 83.9712C99.7175 84.1528 99.8252 84.3183 99.9619 84.4583C100.099 84.5982 100.262 84.7098 100.441 84.7868L142.403 102.813C142.583 102.891 142.776 102.932 142.971 102.935C143.167 102.938 143.361 102.902 143.543 102.83C143.725 102.758 143.891 102.65 144.031 102.514C144.172 102.377 144.283 102.215 144.361 102.035C144.438 101.856 144.479 101.662 144.482 101.467C144.484 101.271 144.448 101.077 144.376 100.896C144.303 100.714 144.195 100.549 144.058 100.409C143.922 100.269 143.759 100.157 143.579 100.08Z" fill="#E4E4E4"/>
<path d="M122.133 84.4624L103.943 76.6482C103.58 76.4924 103.17 76.487 102.803 76.6333C102.436 76.7796 102.142 77.0656 101.986 77.4283C101.83 77.791 101.824 78.2008 101.971 78.5676C102.117 78.9344 102.403 79.2281 102.766 79.3842L120.955 87.1984C121.135 87.2758 121.329 87.3169 121.524 87.3196C121.72 87.3223 121.914 87.2864 122.096 87.214C122.278 87.1416 122.444 87.0341 122.584 86.8976C122.724 86.7612 122.836 86.5985 122.914 86.4188C122.991 86.2391 123.032 86.0459 123.035 85.8503C123.037 85.6548 123.001 85.4606 122.929 85.2789C122.856 85.0972 122.749 84.9316 122.612 84.7915C122.475 84.6514 122.312 84.5396 122.133 84.4624Z" fill="#E4E4E4"/>
<path d="M150.774 83.3572L108.813 65.3307C108.45 65.1754 108.04 65.1703 107.673 65.3167C107.306 65.4631 107.013 65.7489 106.857 66.1114C106.701 66.4739 106.695 66.8834 106.841 67.25C106.987 67.6166 107.273 67.9104 107.636 68.0667L149.597 86.0932C149.777 86.1706 149.97 86.2117 150.166 86.2144C150.361 86.2171 150.556 86.1812 150.738 86.1088C150.92 86.0364 151.085 85.9289 151.226 85.7924C151.366 85.656 151.478 85.4933 151.555 85.3136C151.632 85.1339 151.674 84.9407 151.676 84.7452C151.679 84.5496 151.643 84.3554 151.57 84.1737C151.498 83.992 151.39 83.8264 151.253 83.6863C151.117 83.5462 150.954 83.4344 150.774 83.3572Z" fill="#C4C4C4"/>
<path d="M153.098 77.9546L111.137 59.928C110.774 59.7726 110.364 59.7674 109.997 59.9138C109.63 60.0602 109.337 60.346 109.181 60.7086C109.025 61.0711 109.019 61.4807 109.165 61.8474C109.311 62.2141 109.597 62.5078 109.96 62.6641L151.921 80.6906C152.101 80.7685 152.295 80.8102 152.491 80.8132C152.687 80.8163 152.881 80.7806 153.064 80.7084C153.246 80.6361 153.412 80.5286 153.553 80.392C153.693 80.2554 153.805 80.0924 153.883 79.9125C153.96 79.7325 154.001 79.539 154.004 79.3431C154.006 79.1472 153.97 78.9527 153.897 78.7708C153.824 78.5889 153.716 78.4232 153.579 78.2831C153.442 78.1431 153.279 78.0314 153.098 77.9546Z" fill="#C4C4C4"/>
<path d="M131.652 62.3374L113.462 54.5232C113.099 54.3674 112.689 54.362 112.322 54.5083C111.955 54.6546 111.661 54.9406 111.505 55.3033C111.349 55.666 111.344 56.0758 111.49 56.4426C111.636 56.8094 111.922 57.1031 112.285 57.2592L130.475 65.0734C130.655 65.1507 130.848 65.1919 131.044 65.1946C131.24 65.1972 131.434 65.1614 131.616 65.089C131.798 65.0166 131.963 64.9091 132.104 64.7726C132.244 64.6362 132.356 64.4735 132.433 64.2938C132.51 64.1141 132.552 63.9209 132.554 63.7253C132.557 63.5297 132.521 63.3356 132.448 63.1539C132.376 62.9722 132.268 62.8066 132.131 62.6665C131.995 62.5264 131.832 62.4146 131.652 62.3374V62.3374Z" fill="#C4C4C4"/>
<path d="M86.3666 84.4341L50.6308 92.468C49.6733 92.6844 48.8409 93.2715 48.316 94.1004C47.7912 94.9294 47.6168 95.9325 47.8312 96.8897L57.6303 140.413L99.6178 130.974C99.9628 130.897 100.278 130.723 100.527 130.472L90.7916 87.2317C90.5751 86.2749 89.9876 85.4431 89.158 84.9186C88.3284 84.3942 87.3246 84.2199 86.3666 84.4341Z" fill="#E6E6E6"/>
<path d="M73.3856 90.4271L53.8015 94.8299C52.9296 95.0268 52.1715 95.5612 51.6934 96.3159C51.2153 97.0706 51.0563 97.984 51.2512 98.8557L60.4642 139.776L97.7552 131.393L91.0457 101.592C90.1814 97.7737 87.8367 94.4538 84.5259 92.3607C81.2152 90.2676 77.2088 89.5723 73.3856 90.4271Z" fill="white"/>
<path d="M90.5839 129.187L65.999 134.714C65.8936 134.737 65.7939 134.781 65.7055 134.843C65.6172 134.905 65.5419 134.984 65.4841 135.075C65.4263 135.166 65.387 135.268 65.3685 135.374C65.3501 135.48 65.3528 135.589 65.3765 135.695C65.4002 135.8 65.4444 135.9 65.5067 135.988C65.5689 136.076 65.648 136.151 65.7393 136.209C65.8306 136.266 65.9324 136.305 66.0388 136.323C66.1453 136.342 66.2543 136.339 66.3596 136.315L90.9444 130.788C91.0499 130.765 91.1497 130.721 91.2381 130.659C91.3266 130.596 91.4019 130.518 91.4598 130.426C91.5177 130.335 91.557 130.234 91.5755 130.127C91.594 130.021 91.5913 129.912 91.5676 129.807C91.5439 129.701 91.4996 129.602 91.4373 129.513C91.375 129.425 91.2959 129.35 91.2045 129.293C91.1131 129.235 91.0112 129.196 90.9047 129.178C90.7982 129.16 90.6892 129.163 90.5839 129.187Z" fill="#E4E4E4"/>
<path d="M89.8706 126.02L65.2857 131.547C65.073 131.594 64.888 131.725 64.7714 131.909C64.6548 132.093 64.6162 132.316 64.6641 132.528C64.712 132.741 64.8424 132.926 65.0266 133.042C65.2109 133.159 65.4339 133.197 65.6467 133.15L90.2315 127.623C90.4442 127.575 90.6292 127.444 90.7458 127.26C90.8624 127.076 90.901 126.853 90.8531 126.641C90.8053 126.428 90.6749 126.243 90.4906 126.127C90.3063 126.01 90.0833 125.972 89.8706 126.02Z" fill="#E4E4E4"/>
<path d="M75.2303 125.986L64.5732 128.382C64.4679 128.405 64.3684 128.449 64.2803 128.512C64.1921 128.574 64.117 128.653 64.0594 128.744C64.0017 128.835 63.9626 128.936 63.9442 129.042C63.9258 129.149 63.9285 129.257 63.9522 129.363C63.9758 129.468 64.02 129.567 64.0821 129.655C64.1443 129.743 64.2232 129.818 64.3143 129.876C64.4055 129.934 64.5071 129.973 64.6134 129.991C64.7196 130.009 64.8285 130.007 64.9337 129.983L75.5908 127.587C75.6963 127.564 75.7961 127.52 75.8846 127.458C75.973 127.396 76.0483 127.317 76.1062 127.226C76.1641 127.135 76.2034 127.033 76.2219 126.927C76.2404 126.82 76.2378 126.711 76.214 126.606C76.1903 126.501 76.1461 126.401 76.0837 126.313C76.0214 126.225 75.9423 126.149 75.8509 126.092C75.7596 126.034 75.6577 125.995 75.5512 125.977C75.4447 125.959 75.3356 125.962 75.2303 125.986Z" fill="#E4E4E4"/>
<path d="M87.665 116.224L63.0802 121.751C62.9748 121.774 62.8752 121.818 62.787 121.881C62.6987 121.943 62.6236 122.022 62.5658 122.113C62.4493 122.297 62.4107 122.52 62.4585 122.732C62.5064 122.945 62.6368 123.13 62.8211 123.246C63.0053 123.363 63.2284 123.401 63.4411 123.354L88.0259 117.827C88.2387 117.779 88.4237 117.649 88.5402 117.464C88.6568 117.28 88.6954 117.057 88.6476 116.845C88.5997 116.632 88.4693 116.447 88.285 116.331C88.1008 116.214 87.8777 116.176 87.665 116.224Z" fill="#E4E4E4"/>
<path d="M86.9525 113.058L62.3677 118.585C62.2623 118.609 62.1625 118.653 62.0742 118.715C61.9858 118.777 61.9106 118.856 61.8528 118.947C61.7949 119.038 61.7557 119.14 61.7372 119.246C61.7187 119.352 61.7214 119.461 61.7451 119.566C61.7688 119.672 61.8131 119.771 61.8753 119.859C61.9376 119.948 62.0166 120.023 62.108 120.08C62.1993 120.138 62.3011 120.177 62.4075 120.195C62.5139 120.213 62.6229 120.211 62.7282 120.187L87.3131 114.66C87.4184 114.636 87.518 114.592 87.6063 114.53C87.6945 114.468 87.7697 114.389 87.8274 114.298C87.8851 114.207 87.9244 114.105 87.9428 113.999C87.9612 113.893 87.9585 113.784 87.9348 113.679C87.9111 113.573 87.8669 113.474 87.8047 113.386C87.7425 113.298 87.6636 113.223 87.5723 113.165C87.4811 113.107 87.3794 113.068 87.2731 113.05C87.1667 113.032 87.0578 113.034 86.9525 113.058Z" fill="#E4E4E4"/>
<path d="M72.312 113.022L61.6549 115.418C61.4421 115.466 61.2571 115.596 61.1406 115.781C61.024 115.965 60.9854 116.188 61.0332 116.4C61.0811 116.613 61.2115 116.798 61.3958 116.914C61.58 117.031 61.8031 117.069 62.0158 117.021L72.6729 114.625C72.8857 114.578 73.0707 114.447 73.1873 114.263C73.3038 114.079 73.3424 113.856 73.2946 113.644C73.2467 113.431 73.1163 113.246 72.932 113.13C72.7478 113.013 72.5247 112.975 72.312 113.022Z" fill="#E4E4E4"/>
<path d="M84.7465 103.26L60.1617 108.787C60.0564 108.811 59.9567 108.855 59.8685 108.917C59.7803 108.979 59.7051 109.058 59.6474 109.15C59.5308 109.334 59.4922 109.557 59.5401 109.769C59.5879 109.982 59.7183 110.167 59.9026 110.283C60.0869 110.4 60.3099 110.438 60.5226 110.39L85.1075 104.863C85.2128 104.84 85.3124 104.795 85.4007 104.733C85.4889 104.671 85.5641 104.592 85.6218 104.501C85.6795 104.41 85.7187 104.308 85.7371 104.202C85.7555 104.096 85.7528 103.987 85.7291 103.881C85.7054 103.776 85.6612 103.677 85.599 103.588C85.5368 103.5 85.4578 103.425 85.3666 103.368C85.2753 103.31 85.1736 103.271 85.0672 103.252C84.9608 103.234 84.8519 103.237 84.7465 103.26H84.7465Z" fill="#E6E6E6"/>
<path d="M84.0341 100.095L59.4493 105.622C59.344 105.646 59.2443 105.69 59.1561 105.752C59.0679 105.814 58.9927 105.893 58.935 105.984C58.8184 106.169 58.7798 106.391 58.8277 106.604C58.8755 106.817 59.0059 107.001 59.1902 107.118C59.3745 107.234 59.5975 107.273 59.8102 107.225L84.3951 101.698C84.6078 101.65 84.7928 101.52 84.9094 101.336C85.026 101.152 85.0646 100.929 85.0167 100.716C84.9688 100.504 84.8384 100.319 84.6542 100.202C84.4699 100.086 84.2469 100.047 84.0341 100.095H84.0341Z" fill="#E6E6E6"/>
<path d="M69.3931 100.06L58.7359 102.455C58.5232 102.503 58.3382 102.634 58.2216 102.818C58.105 103.002 58.0664 103.225 58.1143 103.437C58.1622 103.65 58.2926 103.835 58.4768 103.951C58.6611 104.068 58.8841 104.106 59.0969 104.058L69.754 101.663C69.8593 101.639 69.959 101.595 70.0472 101.533C70.1355 101.47 70.2106 101.392 70.2683 101.3C70.326 101.209 70.3652 101.108 70.3836 101.001C70.402 100.895 70.3993 100.786 70.3756 100.681C70.3519 100.576 70.3077 100.476 70.2455 100.388C70.1833 100.3 70.1043 100.225 70.0131 100.167C69.9219 100.109 69.8201 100.07 69.7138 100.052C69.6074 100.033 69.4984 100.036 69.3931 100.06Z" fill="#E6E6E6"/>
<path d="M36.4969 105.043C36.3815 105.043 36.2672 105.066 36.1606 105.11C36.054 105.154 35.9572 105.219 35.8756 105.3C35.794 105.382 35.7293 105.479 35.6851 105.585C35.6409 105.692 35.6182 105.806 35.6182 105.921C35.6182 105.954 35.6452 173.568 35.6452 173.568C35.6693 173.783 35.7716 173.981 35.9327 174.125C36.0938 174.269 36.3023 174.348 36.5184 174.348H158.885C159.101 174.348 159.31 174.269 159.471 174.125C159.632 173.981 159.734 173.783 159.758 173.568L167.375 106.02C167.389 105.897 167.376 105.773 167.339 105.655C167.301 105.537 167.239 105.429 167.157 105.336C167.075 105.244 166.974 105.17 166.861 105.119C166.748 105.069 166.626 105.043 166.502 105.043L36.4969 105.043Z" fill="#0A3764"/>
<path d="M45.1317 108.786C43.8902 108.79 42.7 109.282 41.8184 110.155C40.9367 111.028 40.4343 112.213 40.4199 113.454L40.5727 165.855C40.5673 166.477 40.6851 167.093 40.9195 167.669C41.1538 168.245 41.5001 168.769 41.9381 169.211C42.3762 169.653 42.8975 170.003 43.4719 170.242C44.0463 170.481 44.6624 170.604 45.2846 170.604H122.962C131.871 170.61 140.469 167.334 147.112 161.402C153.755 155.47 157.976 147.299 158.968 138.452L161.722 114.022C161.797 113.364 161.731 112.697 161.53 112.065C161.328 111.434 160.996 110.852 160.554 110.357C160.112 109.863 159.57 109.468 158.965 109.197C158.359 108.926 157.703 108.786 157.04 108.786H45.1317ZM164.168 108.786L164.154 108.483H164.168V108.786Z" fill="#CCCCCC"/>
<path d="M79.062 148.045H48.9707C48.6598 148.045 48.3616 147.922 48.1417 147.702C47.9219 147.483 47.7983 147.185 47.7983 146.874C47.7983 146.563 47.9219 146.265 48.1417 146.045C48.3616 145.826 48.6598 145.702 48.9707 145.702H79.062C80.574 145.681 80.5891 148.067 79.062 148.045Z" fill="#E4E4E4"/>
<path d="M119.598 154.174H48.9707C48.6598 154.174 48.3616 154.05 48.1417 153.831C47.9219 153.611 47.7983 153.313 47.7983 153.002C47.7983 152.692 47.9219 152.394 48.1417 152.174C48.3616 151.954 48.6598 151.831 48.9707 151.831H119.598C121.11 151.81 121.125 154.195 119.598 154.174Z" fill="#E4E4E4"/>
</g>
<defs>
<clipPath id="clip0_195_13780">
<rect width="263" height="175" fill="white"/>
</clipPath>
</defs>
</svg>
