<svg width="440" height="271" viewBox="0 0 440 271" fill="none" xmlns="http://www.w3.org/2000/svg">
<g clip-path="url(#clip0_214_2250)">
<path d="M21.5533 249.835C21.7374 256.711 22.8888 263.528 24.9734 270.083C25.0196 270.235 25.0709 270.385 25.1209 270.537H37.8832C37.8698 270.401 37.8559 270.249 37.8425 270.083C36.9916 260.295 41.8529 201.43 47.7189 191.242C47.205 192.069 20.5637 218.732 21.5533 249.835Z" fill="#0A3764"/>
<path d="M22.5107 270.084C22.6175 270.236 22.7284 270.388 22.8421 270.538H32.4168C32.3442 270.408 32.2601 270.256 32.1626 270.084C30.581 267.228 25.8995 258.688 21.554 249.835C16.886 240.321 12.5997 230.447 12.9606 226.873C12.8488 227.679 9.61719 252.251 22.5107 270.084Z" fill="#0A3764"/>
<path d="M301.017 55.7616C301.382 56.6656 301.941 57.4785 302.655 58.1429C303.368 58.8074 304.218 59.3073 305.145 59.6075C306.072 59.9077 307.054 60.0008 308.021 59.8802C308.988 59.7597 309.917 59.4285 310.742 58.9099L329.22 73.7407L330.364 61.4771L312.642 49.2737C311.679 47.9442 310.263 47.0143 308.661 46.66C307.059 46.3057 305.382 46.5517 303.949 47.3515C302.517 48.1512 301.427 49.449 300.886 50.9991C300.346 52.5491 300.392 54.2437 301.017 55.7616Z" fill="#9F616A"/>
<path d="M329.632 60.3259L322.736 55.4502L314.913 64.4935L324.013 69.8895L329.632 60.3259Z" fill="#C4C4C4"/>
<path d="M328.122 57.0187L351.364 65.9668L373.738 51.3079C376.05 49.7929 378.834 49.1717 381.571 49.5602C384.307 49.9488 386.809 51.3205 388.608 53.4194C390.408 55.5183 391.383 58.2008 391.351 60.9661C391.318 63.7313 390.281 66.3904 388.433 68.4467L388.233 68.669L353.822 87.1296L316.234 69.9479L328.122 57.0187Z" fill="#5C5BFF"/>
<path d="M321.57 269.613H79.3848L88.1663 98.041H126.065L161.013 122.551H330.351L321.57 269.613Z" fill="#5C5BFF"/>
<path d="M262.285 217.291L122.305 159.61C121.816 159.408 121.427 159.019 121.223 158.53C121.019 158.041 121.018 157.491 121.219 157.001L184.647 2.89585C184.849 2.40619 185.237 2.01678 185.726 1.81303C186.214 1.60929 186.764 1.60785 187.254 1.80904L327.233 59.4905C327.723 59.6928 328.112 60.0811 328.316 60.5702C328.519 61.0592 328.521 61.6091 328.32 62.0993L264.892 216.205C264.69 216.694 264.302 217.084 263.813 217.287C263.324 217.491 262.775 217.493 262.285 217.291Z" fill="white"/>
<path d="M262.285 217.291L122.305 159.61C121.816 159.408 121.427 159.019 121.223 158.53C121.019 158.041 121.018 157.491 121.219 157.001L184.647 2.89585C184.849 2.40619 185.237 2.01678 185.726 1.81303C186.214 1.60929 186.764 1.60785 187.254 1.80904L327.233 59.4905C327.723 59.6928 328.112 60.0811 328.316 60.5702C328.519 61.0592 328.521 61.6091 328.32 62.0993L264.892 216.205C264.69 216.694 264.302 217.084 263.813 217.287C263.324 217.491 262.775 217.493 262.285 217.291ZM186.95 2.54816C186.656 2.42743 186.326 2.42828 186.033 2.55053C185.739 2.67278 185.507 2.90644 185.385 3.20024L121.958 157.306C121.837 157.6 121.838 157.93 121.96 158.223C122.082 158.516 122.316 158.749 122.609 158.871L262.589 216.552C262.883 216.673 263.213 216.672 263.506 216.55C263.799 216.428 264.032 216.194 264.153 215.9L327.581 61.7949C327.701 61.5008 327.701 61.1708 327.578 60.8774C327.456 60.584 327.223 60.351 326.929 60.2296L186.95 2.54816Z" fill="#3F3D56"/>
<path d="M226.485 78.0931L191.767 63.7869C191.278 63.5846 190.889 63.1963 190.685 62.7073C190.481 62.2182 190.48 61.6683 190.681 61.1782L204.979 26.4398C205.181 25.9501 205.569 25.5607 206.058 25.357C206.547 25.1532 207.096 25.1518 207.586 25.353L242.304 39.6592C242.793 39.8615 243.182 40.2498 243.386 40.7389C243.59 41.2279 243.591 41.7778 243.39 42.268L229.092 77.0063C228.89 77.496 228.502 77.8854 228.013 78.0891C227.525 78.2929 226.975 78.2943 226.485 78.0931ZM207.282 26.0921C206.988 25.9714 206.658 25.9722 206.365 26.0945C206.072 26.2167 205.839 26.4504 205.717 26.7442L191.42 61.4825C191.299 61.7766 191.3 62.1066 191.422 62.4C191.544 62.6935 191.778 62.9264 192.071 63.0478L226.789 77.354C227.083 77.4747 227.413 77.4739 227.706 77.3516C227.999 77.2294 228.232 76.9957 228.354 76.7019L242.651 41.9636C242.772 41.6695 242.771 41.3396 242.649 41.0461C242.527 40.7527 242.293 40.5197 242 40.3983L207.282 26.0921Z" fill="#F2F2F2"/>
<path d="M214.764 78.234L180.046 63.9278C179.606 63.7457 179.255 63.3963 179.072 62.9561C178.889 62.5159 178.887 62.021 179.068 61.5799L193.366 26.8415C193.548 26.4008 193.897 26.0504 194.337 25.867C194.777 25.6836 195.272 25.6823 195.713 25.8634L230.431 40.1696C230.871 40.3517 231.221 40.7011 231.405 41.1413C231.588 41.5815 231.589 42.0764 231.408 42.5175L217.11 77.2559C216.928 77.6966 216.579 78.0471 216.139 78.2304C215.699 78.4138 215.205 78.4151 214.764 78.234Z" fill="#5C5BFF"/>
<path d="M281.635 125.672L173.049 80.9273C172.831 80.8374 172.632 80.7053 172.465 80.5386C172.298 80.372 172.165 80.174 172.074 79.956C171.983 79.7379 171.937 79.5042 171.936 79.268C171.936 79.0318 171.982 78.7978 172.071 78.5794C172.161 78.3611 172.293 78.1625 172.46 77.9952C172.626 77.8278 172.824 77.695 173.042 77.6041C173.26 77.5133 173.494 77.4663 173.73 77.4658C173.966 77.4653 174.2 77.5114 174.418 77.6013L283.004 122.346C283.445 122.528 283.795 122.877 283.979 123.318C284.162 123.758 284.163 124.253 283.981 124.694C283.8 125.135 283.451 125.486 283.01 125.669C282.57 125.853 282.076 125.854 281.635 125.672V125.672Z" fill="#CCCCCC"/>
<path d="M250.696 126.324L168.334 92.3844C168.115 92.2944 167.917 92.1623 167.75 91.9957C167.583 91.829 167.45 91.631 167.359 91.413C167.268 91.195 167.221 90.9612 167.221 90.725C167.22 90.4888 167.266 90.2549 167.356 90.0365C167.446 89.8181 167.578 89.6196 167.745 89.4522C167.911 89.2849 168.109 89.152 168.327 89.0612C168.545 88.9703 168.778 88.9233 169.014 88.9229C169.251 88.9224 169.484 88.9684 169.703 89.0584L252.065 122.998C252.506 123.179 252.857 123.529 253.04 123.969C253.223 124.409 253.224 124.904 253.043 125.345C252.861 125.787 252.512 126.137 252.072 126.321C251.632 126.504 251.137 126.505 250.696 126.324Z" fill="#CCCCCC"/>
<path d="M298.605 83.3912L250.591 63.606C250.373 63.5161 250.174 63.384 250.007 63.2173C249.84 63.0507 249.707 62.8527 249.616 62.6347C249.525 62.4166 249.479 62.1829 249.478 61.9467C249.478 61.7105 249.524 61.4765 249.613 61.2582C249.703 61.0398 249.835 60.8412 250.002 60.6739C250.168 60.5065 250.366 60.3737 250.584 60.2828C250.802 60.192 251.036 60.145 251.272 60.1445C251.508 60.1441 251.742 60.1901 251.96 60.28L299.974 80.0652C300.415 80.2469 300.765 80.5963 300.949 81.0366C301.132 81.4769 301.133 81.972 300.952 82.4131C300.77 82.8541 300.421 83.205 299.981 83.3884C299.541 83.5719 299.046 83.5729 298.605 83.3912Z" fill="#CCCCCC"/>
<path d="M281.907 89.9096L245.876 75.0621C245.435 74.8804 245.084 74.531 244.901 74.0907C244.718 73.6504 244.717 73.1553 244.898 72.7142C245.08 72.2732 245.429 71.9223 245.869 71.7389C246.309 71.5555 246.804 71.5545 247.245 71.7361L283.276 86.5836C283.717 86.7652 284.067 87.1146 284.251 87.5549C284.434 87.9952 284.435 88.4904 284.254 88.9314C284.072 89.3725 283.723 89.7233 283.283 89.9068C282.843 90.0902 282.348 90.0912 281.907 89.9096V89.9096Z" fill="#CCCCCC"/>
<path d="M272.204 148.585L163.618 103.84C163.4 103.75 163.202 103.618 163.034 103.452C162.867 103.285 162.734 103.087 162.644 102.869C162.553 102.651 162.506 102.417 162.505 102.181C162.505 101.945 162.551 101.711 162.641 101.493C162.731 101.274 162.863 101.076 163.029 100.908C163.196 100.741 163.394 100.608 163.612 100.517C163.829 100.426 164.063 100.379 164.299 100.379C164.535 100.378 164.769 100.424 164.987 100.514L273.573 145.259C274.014 145.441 274.364 145.79 274.548 146.231C274.731 146.671 274.732 147.166 274.551 147.607C274.369 148.048 274.02 148.399 273.58 148.583C273.14 148.766 272.645 148.767 272.204 148.585V148.585Z" fill="#CCCCCC"/>
<path d="M241.266 149.236L158.903 115.296C158.685 115.207 158.487 115.074 158.32 114.908C158.152 114.741 158.02 114.543 157.929 114.325C157.838 114.107 157.791 113.873 157.791 113.637C157.79 113.401 157.836 113.167 157.926 112.949C158.016 112.73 158.148 112.532 158.314 112.364C158.481 112.197 158.679 112.064 158.897 111.973C159.115 111.882 159.348 111.835 159.584 111.835C159.82 111.834 160.054 111.881 160.272 111.97L242.635 145.91C242.853 146 243.052 146.132 243.219 146.298C243.386 146.465 243.519 146.663 243.61 146.881C243.701 147.099 243.748 147.333 243.748 147.569C243.749 147.805 243.703 148.039 243.613 148.258C243.523 148.476 243.391 148.674 243.224 148.842C243.058 149.009 242.86 149.142 242.642 149.233C242.424 149.324 242.19 149.371 241.954 149.371C241.718 149.372 241.484 149.326 241.266 149.236Z" fill="#CCCCCC"/>
<path d="M262.774 171.497L154.188 126.753C153.747 126.571 153.397 126.221 153.213 125.781C153.03 125.341 153.029 124.846 153.211 124.405C153.392 123.964 153.741 123.613 154.181 123.429C154.621 123.246 155.116 123.245 155.557 123.427L264.143 168.171C264.584 168.353 264.934 168.703 265.118 169.143C265.301 169.583 265.302 170.078 265.12 170.519C264.939 170.96 264.59 171.311 264.15 171.495C263.71 171.678 263.215 171.679 262.774 171.497Z" fill="#CCCCCC"/>
<path d="M258.059 182.954L149.473 138.209C149.032 138.027 148.681 137.678 148.498 137.237C148.315 136.797 148.314 136.302 148.495 135.861C148.677 135.42 149.026 135.069 149.466 134.885C149.906 134.702 150.401 134.701 150.842 134.883L259.428 179.628C259.646 179.718 259.844 179.85 260.011 180.016C260.179 180.183 260.311 180.381 260.402 180.599C260.493 180.817 260.54 181.051 260.54 181.287C260.541 181.523 260.495 181.757 260.405 181.975C260.315 182.194 260.183 182.392 260.017 182.56C259.85 182.727 259.652 182.86 259.434 182.951C259.216 183.042 258.983 183.089 258.747 183.089C258.511 183.09 258.277 183.043 258.059 182.954Z" fill="#CCCCCC"/>
<path d="M205.085 182.103C207.258 182.218 209.437 182.152 211.6 181.904C213.546 181.677 215.575 181.363 217.281 180.339C218.019 179.918 218.648 179.328 219.115 178.618C219.583 177.908 219.876 177.098 219.972 176.253C220.047 175.449 219.865 174.642 219.451 173.949C219.038 173.256 218.415 172.713 217.672 172.398C216.919 172.08 216.094 171.972 215.284 172.086C214.474 172.199 213.71 172.53 213.073 173.042C212.392 173.634 211.854 174.372 211.497 175.201C211.141 176.029 210.977 176.928 211.016 177.83C211.106 181.531 214.033 185.187 217.283 186.727C220.944 188.461 225.944 186.987 226.881 182.716C227.076 181.828 225.867 181.519 225.361 182.09C224.671 182.851 224.298 183.848 224.317 184.875C224.336 185.903 224.747 186.884 225.465 187.619C226.183 188.354 227.155 188.787 228.181 188.829C229.207 188.872 230.211 188.52 230.987 187.847L229.626 187.286C230.022 188.944 230.847 190.469 232.018 191.707C233.19 192.945 234.666 193.852 236.299 194.338C237.105 194.58 237.941 194.707 238.782 194.717C239.804 194.719 240.855 195.233 241.832 195.552L248.878 197.848C249.914 198.186 250.572 196.612 249.527 196.271L243.146 194.191C242.083 193.845 241.022 193.489 239.955 193.151C239.193 192.91 238.358 193.041 237.563 192.899C236.075 192.617 234.697 191.918 233.591 190.882C232.485 189.847 231.695 188.518 231.315 187.051C231.292 186.905 231.231 186.768 231.14 186.652C231.048 186.536 230.928 186.445 230.792 186.389C230.655 186.333 230.506 186.312 230.36 186.33C230.213 186.348 230.073 186.403 229.954 186.49C229.508 186.915 228.913 187.146 228.298 187.133C227.682 187.121 227.097 186.865 226.669 186.423C226.241 185.98 226.005 185.387 226.013 184.771C226.02 184.155 226.27 183.568 226.709 183.136L225.189 182.509C224.584 185.264 221.225 186.298 218.805 185.502C216.097 184.611 213.77 182.018 212.963 179.302C212.747 178.65 212.668 177.96 212.73 177.275C212.793 176.591 212.996 175.927 213.327 175.324C213.621 174.775 214.081 174.332 214.641 174.057C215.2 173.783 215.832 173.691 216.446 173.795C216.995 173.873 217.493 174.161 217.833 174.598C218.174 175.036 218.331 175.588 218.272 176.14C218.182 176.76 217.941 177.349 217.57 177.854C217.198 178.359 216.709 178.765 216.144 179.037C214.62 179.855 212.796 180.059 211.104 180.245C209.174 180.455 207.231 180.51 205.292 180.41C204.204 180.355 203.986 182.048 205.085 182.103L205.085 182.103Z" fill="#C4C4C4"/>
<path d="M321.57 134.113V269.613H79.3848V109.603H117.284L152.23 134.113H321.57Z" fill="white"/>
<path d="M193.082 244.178H94.1748V252.04H193.082V244.178Z" fill="#5C5BFF"/>
<path d="M143.629 228.916H94.1748V236.778H143.629V228.916Z" fill="#5C5BFF"/>
<path d="M322.032 270.075H78.9229V109.14H117.43L152.378 133.65H322.032V270.075ZM79.8472 269.15H321.108V134.575H152.086L117.138 110.065H79.8472V269.15Z" fill="#3F3D56"/>
<path d="M420.192 253.721L411.998 256.651L396.802 226.419L408.897 222.094L420.192 253.721Z" fill="#9F616A"/>
<path d="M398.698 270.37L398.579 270.036C397.608 267.306 397.758 264.303 398.997 261.684C400.236 259.065 402.463 257.045 405.188 256.067L421.327 250.296L425.122 260.922L398.698 270.37Z" fill="#2F2E41"/>
<path d="M366.905 261.831H358.202L354.062 228.244L366.906 228.245L366.905 261.831Z" fill="#9F616A"/>
<path d="M369.124 270.272L341.063 270.271V269.915C341.063 268.48 341.346 267.059 341.895 265.733C342.444 264.407 343.248 263.203 344.263 262.188C345.277 261.173 346.481 260.368 347.806 259.819C349.131 259.27 350.551 258.987 351.985 258.987H351.986L369.124 258.988L369.124 270.272Z" fill="#2F2E41"/>
<path d="M386.737 47.2572L382.953 39.7744C382.953 39.7744 368.854 43.3089 367.572 51.4852L386.737 47.2572Z" fill="#C4C4C4"/>
<path d="M402.353 132.817L392.061 190.286L419.39 238.645L403.063 245.037L375.38 198.16L371.831 185.375L369.701 252.139L354.977 251.692L348.226 189.351L359.054 131.396L402.353 132.817Z" fill="#0A3764"/>
<path d="M400.224 106.853L399.868 73.1534C399.868 58.871 390.473 48.3439 389.171 47.3702C388.558 45.4135 387.459 44.061 385.904 43.3532C382.773 41.9331 378.943 43.6372 378.781 43.7139L367.291 48.0239L367.237 48.1816C367.115 48.5423 355.523 86.6063 352.612 96.1595C352.197 97.5301 351.958 98.3145 351.958 98.3145C351.958 98.3145 352.004 100.524 352.085 103.959C352.342 115.771 352.95 142.082 353.193 143.186C353.193 143.186 374.415 146.405 382.818 146.405C397.935 146.405 407.536 143.511 407.753 143.461L408.1 143.389L400.224 106.853Z" fill="#5C5BFF"/>
<path d="M378.648 35.5138C386.176 31.3965 388.942 21.953 384.827 14.4211C380.712 6.88919 371.274 4.12109 363.747 8.23837C356.219 12.3556 353.453 21.7992 357.568 29.3311C361.683 36.863 371.121 39.6311 378.648 35.5138Z" fill="#9F616A"/>
<path opacity="0.2" d="M372.919 99.7208L352.085 103.959C352.004 100.523 351.958 98.3142 351.958 98.3142C351.958 98.3142 352.197 97.5297 352.612 96.1592L372.919 99.7208Z" fill="black"/>
<path d="M311.221 95.279C311.961 95.9137 312.831 96.3784 313.77 96.6403C314.708 96.9022 315.693 96.955 316.654 96.7949C317.616 96.6349 318.53 96.2659 319.333 95.714C320.137 95.162 320.809 94.4405 321.304 93.6003L344.528 98.2684L339.908 86.852L318.562 84.1693C317.097 83.4316 315.411 83.2575 313.826 83.68C312.24 84.1025 310.865 85.0922 309.96 86.4616C309.055 87.831 308.684 89.485 308.916 91.1101C309.149 92.7352 309.969 94.2185 311.221 95.279Z" fill="#9F616A"/>
<path d="M338.73 86.1654L330.364 85.0088L327.574 96.6387L338.134 97.2436L338.73 86.1654Z" fill="#C4C4C4"/>
<path d="M335.869 83.9241L360.62 81.1765L373.751 57.8651C375.108 55.4559 377.295 53.6232 379.904 52.7092C382.512 51.7952 385.364 51.8623 387.927 52.8981C390.489 53.9339 392.588 55.8676 393.83 58.338C395.072 60.8084 395.373 63.6467 394.677 66.323L394.602 66.6126L372.528 98.8384L331.253 100.875L335.869 83.9241Z" fill="#5C5BFF"/>
<path d="M384.429 35.37L371.536 35.833C370.75 35.8612 368.617 27.375 368.338 25.6145C368.117 24.4684 367.487 23.4418 366.565 22.7265C365.644 22.0112 364.493 21.6562 363.329 21.7276C362.364 21.8188 359.93 20.0147 357.419 17.8785C352.651 13.8228 352.899 6.2056 358.136 2.77852C358.28 2.68486 358.42 2.59933 358.558 2.52195C361.862 0.671601 365.727 0.0502322 369.513 0.00284886C372.945 -0.0401042 376.474 0.392128 379.498 2.01755C384.919 4.9316 387.804 11.2996 388.057 17.4515C388.31 23.6034 386.339 29.6188 384.103 35.3548" fill="#2F2E41"/>
<path d="M439.538 271H0.462185C0.339606 271 0.222047 270.951 0.13537 270.865C0.048694 270.778 0 270.66 0 270.538C0 270.415 0.048694 270.297 0.13537 270.211C0.222047 270.124 0.339606 270.075 0.462185 270.075H439.538C439.66 270.075 439.778 270.124 439.865 270.211C439.951 270.297 440 270.415 440 270.538C440 270.66 439.951 270.778 439.865 270.865C439.778 270.951 439.66 271 439.538 271Z" fill="#CBCBCB"/>
</g>
<defs>
<clipPath id="clip0_214_2250">
<rect width="440" height="271" fill="white"/>
</clipPath>
</defs>
</svg>
